<svg width="96" height="96" viewBox="0 0 96 96" fill="none" xmlns="http://www.w3.org/2000/svg">
<line x1="1" y1="0.5" x2="96" y2="0.5" stroke="white" stroke-opacity="0.019"/>
<path d="M1.90488 19.0051C2.43723 18.9921 3.13506 19.006 3.6654 19.0251C3.83161 19.031 3.74745 19.0575 3.86219 19.0628C4.08659 19.0731 4.29564 19.0601 4.5174 19.0724C4.59089 19.0766 4.49941 19.1186 4.57647 19.122C4.99875 19.1406 5.39824 19.1299 5.82602 19.1388C7.93309 19.1828 10.0043 19.1986 12.1372 19.2177C12.8404 19.224 13.6953 19.2621 14.4217 19.2454C14.5065 19.2435 14.456 19.2066 14.4721 19.2036C14.7251 19.1571 14.641 19.2315 14.8062 19.2414C15.462 19.2804 16.1912 19.2838 16.8222 19.2695C17.0907 19.2634 16.8215 19.1902 17.0919 19.2313C17.1106 19.2341 17.0425 19.2732 17.1161 19.2774C17.2831 19.2867 17.5999 19.2798 17.7293 19.2829C17.9787 19.289 18.02 19.2886 18.2559 19.2891C18.5784 19.29 18.9619 19.3095 19.3079 19.3006C19.3818 19.2986 19.284 19.2585 19.4018 19.2517C19.5197 19.2449 19.8315 19.2483 19.9367 19.2577C20.0418 19.2672 19.9971 19.2987 20.0157 19.3059C20.1688 19.3669 20.5295 19.2824 20.5759 19.2804C21.4222 19.2448 22.148 19.2929 22.9424 19.2927C23.5455 19.2925 24.1903 19.2766 24.7642 19.2788C25.4478 19.2816 26.0272 19.3033 26.6914 19.2996C26.7615 19.2992 26.6793 19.2521 26.7649 19.2515C27.6745 19.2461 28.5777 19.2512 29.4833 19.283C29.5741 19.2863 29.4571 19.3277 29.5478 19.3334C30.1033 19.3674 30.9824 19.4492 31.3123 19.2689C31.6886 19.2759 32.1455 19.2832 32.4821 19.3195C32.6992 19.3429 32.4884 19.388 32.755 19.3688C32.8151 19.3645 32.7369 19.325 32.8271 19.3216C33.2068 19.3071 33.6217 19.3199 33.9973 19.2995C34.0737 19.2953 34.0528 19.2599 34.0745 19.2535C34.2564 19.2019 34.5593 19.2872 34.6253 19.2934C35.1281 19.3397 35.4953 19.3215 35.9637 19.3226C36.0724 19.3229 35.9439 19.2753 36.0485 19.2739C36.5909 19.2671 37.1528 19.2712 37.684 19.2923C37.8021 19.2971 37.6935 19.3376 37.7499 19.3419C37.9989 19.3607 38.0541 19.2842 38.2928 19.3007C38.3431 19.3041 38.3148 19.3388 38.324 19.3426C38.4677 19.4024 38.5925 19.3177 38.6295 19.3158C39.097 19.2903 39.3958 19.3787 39.8475 19.3662C39.9015 19.3646 39.7797 19.3207 39.9316 19.3189C40.9434 19.3068 42.0136 19.3189 43.0152 19.354C43.1709 19.3594 43.0598 19.3923 43.0696 19.3964C43.2293 19.4599 43.3326 19.3748 43.3834 19.3716C43.784 19.3485 44.1582 19.4199 44.4304 19.3186C46.1269 19.3537 47.8156 19.2968 49.4981 19.3876C49.5195 19.3886 49.4812 19.4305 49.5238 19.4325C50.0377 19.456 49.939 19.3909 50.2791 19.3112C50.3647 19.2912 50.6253 19.3874 50.6484 19.3944C50.7324 19.4204 50.6452 19.4827 50.6734 19.4877C50.9061 19.5272 50.8682 19.3211 51.1822 19.3211C51.192 19.3214 51.1508 19.3593 51.1771 19.3631C51.259 19.375 51.3402 19.3599 51.4203 19.3729C51.6036 19.4032 51.6689 19.5033 51.949 19.445C51.9844 19.4375 51.9303 19.3205 52.2107 19.3261C52.3224 19.3284 52.8171 19.3264 52.9557 19.3339C53.0942 19.3415 52.9991 19.3792 53.009 19.3808C53.3821 19.4306 53.2406 19.4513 53.4276 19.525C53.6145 19.5985 53.5627 19.4233 53.6389 19.4037C53.7152 19.3842 53.9888 19.4253 54.056 19.4396C54.1232 19.4539 54.0394 19.4778 54.0991 19.4859C54.4953 19.5388 54.273 19.3989 54.4035 19.3711C54.7113 19.3052 54.9509 19.4352 55.2327 19.448C55.3089 19.4514 55.2467 19.4218 55.3146 19.419C55.5834 19.4085 55.7451 19.449 56.051 19.4118C56.101 19.4058 56.3483 19.3276 56.5083 19.385C56.531 19.3932 56.4666 19.4256 56.5812 19.4329C56.7523 19.4438 57.0607 19.4508 57.2447 19.44C57.3805 19.432 57.2249 19.3786 57.3958 19.3952C57.4718 19.4026 57.331 19.4338 57.4737 19.4451C57.6158 19.4564 57.9788 19.4551 58.117 19.454C58.2549 19.4529 58.1794 19.4124 58.1906 19.4097C58.258 19.3941 58.5227 19.3745 58.5461 19.3746C59.7258 19.3696 60.8138 19.4379 61.9624 19.4153C62.0525 19.4136 61.9925 19.3709 62.0062 19.3702C62.3148 19.3523 62.0715 19.4658 62.2871 19.5038C62.256 19.4172 62.3832 19.4329 62.6006 19.4234C62.7053 19.4187 62.6483 19.3852 62.6578 19.3817C62.8132 19.3308 62.9213 19.3966 62.9492 19.4101C63.0521 19.4596 63.164 19.4011 63.234 19.4342C63.304 19.467 63.143 19.5157 63.3515 19.5151C63.4099 19.4841 63.2551 19.403 63.4134 19.3899C64.0106 19.3402 65.1254 19.4038 65.6056 19.4104C66.0848 19.417 66.2396 19.4113 66.5188 19.4225C67.0232 19.4428 66.8384 19.3826 67.1516 19.3551C67.4657 19.3276 67.313 19.4755 67.3581 19.5073C67.4025 19.5391 67.4508 19.5064 67.506 19.5239C67.561 19.5414 67.442 19.563 67.5712 19.5695C67.7005 19.5761 68.0541 19.5195 68.1 19.4863C68.1969 19.4158 68.0375 19.3419 68.3797 19.3679C68.3994 19.3694 68.3355 19.4083 68.4109 19.4122C69.0094 19.4422 69.6312 19.4441 70.229 19.4705C70.3112 19.4742 70.2377 19.5175 70.2856 19.5202C70.7838 19.5478 70.6057 19.4749 70.8788 19.3938C70.8175 19.5017 70.9685 19.5677 71.3467 19.5683C71.574 19.5687 71.5348 19.5216 71.6819 19.4884C71.726 19.4784 71.8869 19.5108 71.916 19.4886C72.0121 19.4162 71.8606 19.3351 72.2505 19.3674C72.2676 19.3689 72.2131 19.4086 72.2722 19.411C72.6543 19.4267 72.7 19.3509 73.113 19.3418C73.4367 19.3346 74.0124 19.3807 74.381 19.3883C74.3733 19.5095 74.7214 19.4818 74.8626 19.3982C75.1018 19.4016 75.3602 19.3968 75.5914 19.4084C75.671 19.4123 75.6187 19.4475 75.6287 19.4513C75.7826 19.5108 75.8866 19.4294 75.9382 19.4262C76.4979 19.3952 76.9538 19.4569 77.4878 19.3966C77.5068 19.3945 77.5375 19.3102 77.6803 19.3717C77.6895 19.376 77.5131 19.4143 77.7644 19.4173C78.0156 19.4202 78.4893 19.4654 78.8381 19.4263C78.9226 19.417 79.1361 19.3486 79.3074 19.402C79.3303 19.4093 79.3053 19.4334 79.3382 19.4469C79.4448 19.4897 79.5029 19.4045 79.6282 19.4769C79.7534 19.5492 80.0138 19.6034 80.3656 19.5535C80.3768 19.552 80.4601 19.4845 80.5708 19.4856C80.7474 19.4874 80.9981 19.5014 81.1825 19.501C81.2708 19.5008 81.2143 19.4589 81.2296 19.4581C81.8232 19.4346 82.2458 19.472 82.8818 19.4882C82.9983 19.4912 83.3334 19.4341 83.5591 19.4793C83.8069 19.5287 83.5522 19.7345 84.1219 19.6854C84.3516 19.6658 84.6425 19.4048 85.0554 19.5401C85.8562 19.5065 86.5968 19.5758 87.3998 19.5279C87.4359 19.5258 87.5501 19.4529 87.635 19.4539C87.761 19.4555 87.8302 19.4896 87.9202 19.4918C88.2972 19.5021 88.6423 19.473 89.0059 19.4775C89.1439 19.4791 89.0957 19.5143 89.2603 19.5163C89.4249 19.5182 89.5345 19.4719 89.7575 19.4943C89.9259 19.5113 90.0943 19.6061 90.3178 19.6171C90.3263 19.5237 90.4798 19.5256 90.7527 19.5009C90.8051 19.4961 90.7489 19.4636 90.7737 19.4597C90.8746 19.4429 90.9681 19.4699 91.064 19.4516C91.0873 19.4472 91.0884 19.4153 91.1074 19.4099C91.2696 19.3629 91.5367 19.4347 91.5826 19.4472C91.7584 19.4947 91.8405 19.4532 91.9754 19.4719C92.11 19.4906 91.9087 19.5139 92.066 19.5253C92.392 19.5487 92.8108 19.5436 93.1419 19.5451C93.274 19.5454 93.1839 19.5028 93.2028 19.5019C93.476 19.4911 93.7523 19.5364 93.9037 19.4516C94.0931 19.671 94.0684 19.4303 94.4589 19.4742C94.4897 19.4778 94.5288 19.5815 94.4107 19.5968C94.2926 19.612 94.1136 19.5795 93.9497 19.6033C93.9109 19.6089 93.6887 19.7061 93.6584 19.712C93.4208 19.758 93.3872 19.603 93.3746 19.5944C93.2321 19.5025 92.9605 19.6073 92.889 19.6145C92.5618 19.6477 92.2838 19.6259 92.0102 19.6496C91.8312 19.6649 91.8137 19.7664 91.6731 19.7633C91.206 19.753 91.0429 19.6113 90.6026 19.7342C90.5082 19.7604 90.602 19.8714 90.2638 19.7841C90.2425 19.7786 89.9914 19.6988 89.8463 19.7493C89.8281 19.7557 89.8287 19.788 89.8046 19.7907C89.6436 19.8083 89.5361 19.7825 89.3607 19.7949C89.1852 19.8072 88.9743 19.8256 88.774 19.8147C88.6533 19.8081 88.4984 19.7478 88.4406 19.733C88.2774 19.6905 88.1024 19.7602 88.0013 19.7088C87.8994 19.657 88.0987 19.5784 87.8314 19.545C87.8215 19.6291 87.7987 19.7153 87.7828 19.7999C87.197 19.7969 86.6206 19.7697 86.0328 19.7735C85.9599 19.774 86.0345 19.8192 85.9563 19.8209C85.6268 19.8281 85.3389 19.7959 84.9971 19.8087C84.7325 19.8188 84.4424 19.8667 84.1657 19.8787C83.9967 19.7825 83.5862 19.8152 83.288 19.8064C83.1835 19.8034 83.1905 19.7777 83.1162 19.7693C82.836 19.7383 82.9673 19.8233 82.8905 19.8367C82.5608 19.8938 82.5326 19.7014 82.1439 19.7061C82.1233 19.7063 81.8716 19.8089 81.837 19.8153C81.6167 19.8569 81.8005 19.7796 81.6627 19.772C81.411 19.7581 81.2361 19.7336 80.9408 19.7637C80.8547 19.7726 80.6481 19.8365 80.4809 19.7871C80.4589 19.7806 80.471 19.7467 80.4533 19.7447C80.1329 19.7116 80.1244 19.8181 79.9413 19.8542C79.7581 19.8903 79.4752 19.8167 79.4176 19.7955C79.267 19.7407 79.533 19.7721 79.5412 19.7667C79.637 19.7027 79.4307 19.7137 79.273 19.7083C79.2502 19.6039 79.0297 19.6102 79.1096 19.7031C79.1187 19.7133 79.2414 19.7036 79.273 19.7083C79.1346 19.8108 78.8923 19.8239 78.6247 19.7282C78.4994 19.6833 78.6178 19.631 78.2373 19.6501C78.0646 19.6587 78.1313 19.7307 77.9789 19.7503C77.6307 19.795 77.1782 19.7279 76.8192 19.7385C76.6889 19.7423 76.8158 19.7817 76.7268 19.7857C76.4905 19.7963 76.2821 19.7668 76.0448 19.7819C76.0233 19.7834 76.0758 19.8246 76.002 19.8251C75.4425 19.8299 74.9554 19.8035 74.3712 19.8028C74.089 19.8024 73.5844 19.8251 73.292 19.8206C72.7853 19.8129 72.1619 19.753 71.729 19.7675C71.4466 19.7769 71.5086 19.8181 71.3876 19.8461C71.1542 19.9006 70.7409 19.8031 70.6853 19.788C70.6836 19.7875 70.9266 19.7778 70.7969 19.7566C70.7215 19.7125 70.688 19.7878 70.6853 19.788C70.6488 19.7782 70.1634 19.7689 70.067 19.7767C70.0147 19.7811 70.044 19.8201 70.0167 19.8216C69.3677 19.8566 68.7176 19.8665 68.0594 19.8482C68.0478 19.8474 68.0652 19.8038 68.038 19.8024C67.6569 19.783 67.4129 19.8365 67.0986 19.8682C66.7844 19.8999 66.5352 19.8893 66.3492 19.8143C66.1121 19.8237 65.772 19.7906 65.5762 19.7705C65.3805 19.7503 65.3532 19.8354 65.336 19.8371C64.7988 19.8909 64.4883 19.8422 63.9309 19.8346C63.666 19.8309 63.1404 19.8432 62.8535 19.8525C62.6268 19.86 62.4902 19.8401 62.2813 19.8528C62.253 19.8545 62.2816 19.8924 62.273 19.8938C62.0398 19.9391 62.1519 19.8466 62.1037 19.83C61.9292 19.7699 61.8214 19.7379 61.5228 19.7662C61.4539 19.7727 61.2533 19.9059 61.1278 19.9137C60.9646 19.9236 61.0262 19.8758 60.8553 19.8874C60.8407 19.8884 60.8437 19.9178 60.7382 19.9165C60.2486 19.9109 59.7148 19.8937 59.206 19.8967C59.1365 19.897 59.2256 19.9437 59.1252 19.9449C58.654 19.9504 58.1375 19.9487 57.6785 19.9268C57.5655 19.9213 57.6363 19.8886 57.6118 19.8789C57.4612 19.8201 57.2477 19.9055 57.2125 19.9071C56.372 19.9482 55.7287 19.8709 54.8721 19.9077C54.8255 19.9098 54.4665 20.0014 54.3064 19.9229C54.2954 19.9176 54.137 19.8373 53.9969 19.8922C53.9882 19.8957 54.0869 19.937 53.9146 19.9328C53.7424 19.9286 53.4651 19.9562 53.2283 19.9108C53.1533 19.8965 52.9761 19.8163 52.7524 19.8802C52.7379 19.8847 52.3926 20.0291 52.2694 19.9295C52.2494 19.9131 52.2703 19.8076 52.0034 19.8616C51.9524 19.8721 52.045 19.8957 51.9106 19.9104C51.7047 19.933 51.432 19.9047 51.1789 19.9517C51.1348 19.9601 50.9469 20.0317 50.7962 19.9773C50.7726 19.9688 50.8175 19.9336 50.7379 19.9296C50.3594 19.9107 49.9632 19.9343 49.5789 19.9099C49.4428 19.9014 49.5124 19.8444 49.3705 19.8292C49.2287 19.8139 48.9428 19.7993 48.7943 19.8253C48.6458 19.8513 48.8081 19.942 48.5856 19.9493C47.6185 19.9808 46.6604 19.9276 45.6948 19.9198C45.5515 19.9187 45.6703 19.9511 45.4592 19.9517C44.681 19.9542 43.3375 19.9846 42.6622 19.9156C42.1212 19.8603 42.802 19.8183 42.3886 19.7958C42.1891 19.7851 41.9733 19.8906 41.9251 19.8939C41.4546 19.9276 41.1277 19.8809 40.7042 19.8952C40.6167 19.8982 40.7025 19.9409 40.6281 19.943C40.3739 19.9504 40.1067 19.9313 39.8638 19.9348C39.7548 19.9365 39.7749 19.9692 39.6746 19.9666C39.4347 19.961 39.2225 19.9472 38.9886 19.9166C38.9673 19.9139 39.111 19.8732 38.9335 19.8717C38.6462 19.8694 38.2896 19.8392 37.959 19.8704C37.861 19.8798 37.8571 19.9544 37.6463 19.9028C37.6021 19.8921 37.6585 19.8025 37.4129 19.8799C37.3716 19.8928 36.9591 19.9972 36.7566 19.9299C36.7032 19.9122 36.5669 19.8388 36.4489 19.8504C36.4329 19.8522 36.497 19.8923 36.3993 19.8962C36.0548 19.9093 35.6938 19.905 35.34 19.9176C35.2455 19.921 35.3862 19.9625 35.2454 19.9663C34.8581 19.9767 34.3746 19.9662 33.9959 19.9532C33.8562 19.9483 33.9527 19.914 33.9426 19.9102C33.7792 19.8494 33.6826 19.9315 33.6284 19.9363C33.2911 19.965 33.0343 19.9264 32.7235 19.9366C32.6377 19.9393 32.6985 19.9785 32.6814 19.9819C32.5043 20.0161 32.6363 19.9458 32.5242 19.938C32.2101 19.9161 31.86 19.9192 31.5424 19.9242C31.4258 19.9261 31.5569 19.9715 31.4522 19.9727C30.8326 19.9805 30.1884 19.9762 29.5837 19.9511C29.4698 19.9463 29.5414 19.9114 29.5177 19.9034C29.3542 19.8475 29.1145 19.9237 29.0593 19.931C28.8085 19.9641 28.7111 19.9332 28.4896 19.939C27.4076 19.9677 26.0717 19.9472 25.0504 19.9346C23.7196 19.9183 22.6869 19.8851 21.4178 19.8937C21.3371 19.8942 21.4185 19.9407 21.3489 19.9417C20.4512 19.9529 19.5674 19.9348 18.6679 19.9482C18.5941 19.9492 18.7005 19.9933 18.582 19.9964C18.339 20.0031 18.0312 20.0007 17.7855 19.9866C17.6656 19.9799 17.8264 19.942 17.7057 19.936C17.4249 19.9218 17.1238 19.9187 16.8353 19.9257C16.7125 19.9288 16.8977 19.9739 16.7382 19.9744C15.6511 19.9789 14.5834 19.9867 13.4849 19.9283C13.4096 19.9243 13.3435 19.8327 13.1834 19.8502C13.1713 19.8757 13.172 19.9056 13.1667 19.9328C11.5842 19.9474 10.0179 19.9156 8.43093 19.9107C8.36402 19.9105 8.47965 19.9591 8.35011 19.9589C7.60037 19.9582 6.87232 19.9717 6.10542 19.9234C6.02933 19.9187 6.06837 19.8333 5.84414 19.8462C5.80459 19.8486 5.46686 19.86 5.37954 19.8785C5.36768 19.8813 5.4293 19.9212 5.32047 19.9223C4.68805 19.9284 4.0253 19.9193 3.39397 19.8949C3.29208 19.8909 3.40058 19.8485 3.32801 19.8452C2.81322 19.8227 2.25328 19.855 1.76137 19.8164C1.43211 19.7905 1.55401 19.7171 1.37904 19.6449C1.35429 19.6347 1.1504 19.633 1.13986 19.591C1.11279 19.4853 1.21155 19.3696 1.17103 19.257C1.16246 19.2327 0.889402 19.2588 1.05107 19.2002C1.06237 19.1963 1.26034 19.1768 1.3091 19.1569C1.34305 19.1432 1.28187 19.1004 1.35114 19.0828C1.4204 19.0653 1.49651 19.1011 1.61134 19.0804C1.72612 19.0595 1.67565 19.0108 1.90488 19.0051ZM64.6949 19.6806C64.5136 19.6397 64.4869 19.7893 64.6829 19.7535C64.6924 19.7516 64.7042 19.6826 64.6949 19.6806ZM86.6239 19.6569C86.3869 19.591 86.2248 19.688 86.3919 19.7389C86.5591 19.7898 86.6961 19.6769 86.6239 19.6569ZM89.0809 19.6088C88.804 19.5568 88.7604 19.7688 89.057 19.726C89.0743 19.7235 89.0971 19.6118 89.0809 19.6088ZM2.19045 19.6243C2.18795 19.6223 2.04138 19.6204 2.03788 19.6223C1.95984 19.6698 2.25291 19.6737 2.19045 19.6243ZM91.5191 19.5564C91.4327 19.5277 91.1838 19.5608 91.2912 19.5965C91.3776 19.6251 91.6268 19.592 91.5191 19.5564ZM55.2403 19.521C55.2374 19.5187 55.1324 19.5167 55.1345 19.5293C55.1416 19.5699 55.2878 19.5584 55.2403 19.521ZM95.6631 19.5539C95.0509 19.5459 94.6797 19.3708 95.3464 19.3905C95.4671 19.3941 95.0862 19.4464 95.2399 19.4622C95.5211 19.4909 95.7078 19.381 95.9947 19.4399C96.0467 19.4507 95.6981 19.5548 95.6621 19.5542C95.6624 19.5541 95.6628 19.554 95.6631 19.5539ZM64.5905 19.5009C64.5869 19.499 64.4414 19.4971 64.4379 19.499C64.3592 19.5465 64.6522 19.5503 64.5905 19.5009ZM49.1089 19.4285C49.1009 19.4243 48.7633 19.4203 48.7523 19.4242C48.5762 19.5018 49.2587 19.51 49.1089 19.4285ZM74.3868 19.3915C74.5455 19.3437 74.7354 19.3381 74.8619 19.3981C74.7042 19.3949 74.5454 19.3944 74.3868 19.3915Z" fill="white" fill-opacity="0.01"/>
<path d="M1.90488 38.0051C2.43723 37.9921 3.13506 38.006 3.6654 38.0251C3.83161 38.031 3.74745 38.0575 3.86219 38.0628C4.08659 38.0731 4.29564 38.0601 4.5174 38.0724C4.59089 38.0766 4.49941 38.1186 4.57647 38.122C4.99875 38.1406 5.39824 38.1299 5.82602 38.1388C7.93309 38.1828 10.0043 38.1986 12.1372 38.2177C12.8404 38.224 13.6953 38.2621 14.4217 38.2454C14.5065 38.2435 14.456 38.2066 14.4721 38.2036C14.7251 38.1571 14.641 38.2315 14.8062 38.2414C15.462 38.2804 16.1912 38.2838 16.8222 38.2695C17.0907 38.2634 16.8215 38.1902 17.0919 38.2313C17.1106 38.2341 17.0425 38.2732 17.1161 38.2774C17.2831 38.2867 17.5999 38.2798 17.7293 38.2829C17.9787 38.289 18.02 38.2886 18.2559 38.2891C18.5784 38.29 18.9619 38.3095 19.3079 38.3006C19.3818 38.2986 19.284 38.2585 19.4018 38.2517C19.5197 38.2449 19.8315 38.2483 19.9367 38.2577C20.0418 38.2672 19.9971 38.2987 20.0157 38.3059C20.1688 38.3669 20.5295 38.2824 20.5759 38.2804C21.4222 38.2448 22.148 38.2929 22.9424 38.2927C23.5455 38.2925 24.1903 38.2766 24.7642 38.2788C25.4478 38.2816 26.0272 38.3033 26.6914 38.2996C26.7615 38.2992 26.6793 38.2521 26.7649 38.2515C27.6745 38.2461 28.5777 38.2512 29.4833 38.283C29.5741 38.2863 29.4571 38.3277 29.5478 38.3334C30.1033 38.3674 30.9824 38.4492 31.3123 38.2689C31.6886 38.2759 32.1455 38.2832 32.4821 38.3195C32.6992 38.3429 32.4884 38.388 32.755 38.3688C32.8151 38.3645 32.7369 38.325 32.8271 38.3216C33.2068 38.3071 33.6217 38.3199 33.9973 38.2995C34.0737 38.2953 34.0528 38.2599 34.0745 38.2535C34.2564 38.2019 34.5593 38.2872 34.6253 38.2934C35.1281 38.3397 35.4953 38.3215 35.9637 38.3226C36.0724 38.3229 35.9439 38.2753 36.0485 38.2739C36.5909 38.2671 37.1528 38.2712 37.684 38.2923C37.8021 38.2971 37.6935 38.3376 37.7499 38.3419C37.9989 38.3607 38.0541 38.2842 38.2928 38.3007C38.3431 38.3041 38.3148 38.3388 38.324 38.3426C38.4677 38.4024 38.5925 38.3177 38.6295 38.3158C39.097 38.2903 39.3958 38.3787 39.8475 38.3662C39.9015 38.3646 39.7797 38.3207 39.9316 38.3189C40.9434 38.3068 42.0136 38.3189 43.0152 38.354C43.1709 38.3594 43.0598 38.3923 43.0696 38.3964C43.2293 38.4599 43.3326 38.3748 43.3834 38.3716C43.784 38.3485 44.1582 38.4199 44.4304 38.3186C46.1269 38.3537 47.8156 38.2968 49.4981 38.3876C49.5195 38.3886 49.4812 38.4305 49.5238 38.4325C50.0377 38.456 49.939 38.3909 50.2791 38.3112C50.3647 38.2912 50.6253 38.3874 50.6484 38.3944C50.7324 38.4204 50.6452 38.4827 50.6734 38.4877C50.9061 38.5272 50.8682 38.3211 51.1822 38.3211C51.192 38.3214 51.1508 38.3593 51.1771 38.3631C51.259 38.375 51.3402 38.3599 51.4203 38.3729C51.6036 38.4032 51.6689 38.5033 51.949 38.445C51.9844 38.4375 51.9303 38.3205 52.2107 38.3261C52.3224 38.3284 52.8171 38.3264 52.9557 38.3339C53.0942 38.3415 52.9991 38.3792 53.009 38.3808C53.3821 38.4306 53.2406 38.4513 53.4276 38.525C53.6145 38.5985 53.5627 38.4233 53.6389 38.4037C53.7152 38.3842 53.9888 38.4253 54.056 38.4396C54.1232 38.4539 54.0394 38.4778 54.0991 38.4859C54.4953 38.5388 54.273 38.3989 54.4035 38.3711C54.7113 38.3052 54.9509 38.4352 55.2327 38.448C55.3089 38.4514 55.2467 38.4218 55.3146 38.419C55.5834 38.4085 55.7451 38.449 56.051 38.4118C56.101 38.4058 56.3483 38.3276 56.5083 38.385C56.531 38.3932 56.4666 38.4256 56.5812 38.4329C56.7523 38.4438 57.0607 38.4508 57.2447 38.44C57.3805 38.432 57.2249 38.3786 57.3958 38.3952C57.4718 38.4026 57.331 38.4338 57.4737 38.4451C57.6158 38.4564 57.9788 38.4551 58.117 38.454C58.2549 38.4529 58.1794 38.4124 58.1906 38.4097C58.258 38.3941 58.5227 38.3745 58.5461 38.3746C59.7258 38.3696 60.8138 38.4379 61.9624 38.4153C62.0525 38.4136 61.9925 38.3709 62.0062 38.3702C62.3148 38.3523 62.0715 38.4658 62.2871 38.5038C62.256 38.4172 62.3832 38.4329 62.6006 38.4234C62.7053 38.4187 62.6483 38.3852 62.6578 38.3817C62.8132 38.3308 62.9213 38.3966 62.9492 38.4101C63.0521 38.4596 63.164 38.4011 63.234 38.4342C63.304 38.467 63.143 38.5157 63.3515 38.5151C63.4099 38.4841 63.2551 38.403 63.4134 38.3899C64.0106 38.3402 65.1254 38.4038 65.6056 38.4104C66.0848 38.417 66.2396 38.4113 66.5188 38.4225C67.0232 38.4428 66.8384 38.3826 67.1516 38.3551C67.4657 38.3276 67.313 38.4755 67.3581 38.5073C67.4025 38.5391 67.4508 38.5064 67.506 38.5239C67.561 38.5414 67.442 38.563 67.5712 38.5695C67.7005 38.5761 68.0541 38.5195 68.1 38.4863C68.1969 38.4158 68.0375 38.3419 68.3797 38.3679C68.3994 38.3694 68.3355 38.4083 68.4109 38.4122C69.0094 38.4422 69.6312 38.4441 70.229 38.4705C70.3112 38.4742 70.2377 38.5175 70.2856 38.5202C70.7838 38.5478 70.6057 38.4749 70.8788 38.3938C70.8175 38.5017 70.9685 38.5677 71.3467 38.5683C71.574 38.5687 71.5348 38.5216 71.6819 38.4884C71.726 38.4784 71.8869 38.5108 71.916 38.4886C72.0121 38.4162 71.8606 38.3351 72.2505 38.3674C72.2676 38.3689 72.2131 38.4086 72.2722 38.411C72.6543 38.4267 72.7 38.3509 73.113 38.3418C73.4367 38.3346 74.0124 38.3807 74.381 38.3883C74.3733 38.5095 74.7214 38.4818 74.8626 38.3982C75.1018 38.4016 75.3602 38.3968 75.5914 38.4084C75.671 38.4123 75.6187 38.4475 75.6287 38.4513C75.7826 38.5108 75.8866 38.4294 75.9382 38.4262C76.4979 38.3952 76.9538 38.4569 77.4878 38.3966C77.5068 38.3945 77.5375 38.3102 77.6803 38.3717C77.6895 38.376 77.5131 38.4143 77.7644 38.4173C78.0156 38.4202 78.4893 38.4654 78.8381 38.4263C78.9226 38.417 79.1361 38.3486 79.3074 38.402C79.3303 38.4093 79.3053 38.4334 79.3382 38.4469C79.4448 38.4897 79.5029 38.4045 79.6282 38.4769C79.7534 38.5492 80.0138 38.6034 80.3656 38.5535C80.3768 38.552 80.4601 38.4845 80.5708 38.4856C80.7474 38.4874 80.9981 38.5014 81.1825 38.501C81.2708 38.5008 81.2143 38.4589 81.2296 38.4581C81.8232 38.4346 82.2458 38.472 82.8818 38.4882C82.9983 38.4912 83.3334 38.4341 83.5591 38.4793C83.8069 38.5287 83.5522 38.7345 84.1219 38.6854C84.3516 38.6658 84.6425 38.4048 85.0554 38.5401C85.8562 38.5065 86.5968 38.5758 87.3998 38.5279C87.4359 38.5258 87.5501 38.4529 87.635 38.4539C87.761 38.4555 87.8302 38.4896 87.9202 38.4918C88.2972 38.5021 88.6423 38.473 89.0059 38.4775C89.1439 38.4791 89.0957 38.5143 89.2603 38.5163C89.4249 38.5182 89.5345 38.4719 89.7575 38.4943C89.9259 38.5113 90.0943 38.6061 90.3178 38.6171C90.3263 38.5237 90.4798 38.5256 90.7527 38.5009C90.8051 38.4961 90.7489 38.4636 90.7737 38.4597C90.8746 38.4429 90.9681 38.4699 91.064 38.4516C91.0873 38.4472 91.0884 38.4153 91.1074 38.4099C91.2696 38.3629 91.5367 38.4347 91.5826 38.4472C91.7584 38.4947 91.8405 38.4532 91.9754 38.4719C92.11 38.4906 91.9087 38.5139 92.066 38.5253C92.392 38.5487 92.8108 38.5436 93.1419 38.5451C93.274 38.5454 93.1839 38.5028 93.2028 38.5019C93.476 38.4911 93.7523 38.5364 93.9037 38.4516C94.0931 38.671 94.0684 38.4303 94.4589 38.4742C94.4897 38.4778 94.5288 38.5815 94.4107 38.5968C94.2926 38.612 94.1136 38.5795 93.9497 38.6033C93.9109 38.6089 93.6887 38.7061 93.6584 38.712C93.4208 38.758 93.3872 38.603 93.3746 38.5944C93.2321 38.5025 92.9605 38.6073 92.889 38.6145C92.5618 38.6477 92.2838 38.6259 92.0102 38.6496C91.8312 38.6649 91.8137 38.7664 91.6731 38.7633C91.206 38.753 91.0429 38.6113 90.6026 38.7342C90.5082 38.7604 90.602 38.8714 90.2638 38.7841C90.2425 38.7786 89.9914 38.6988 89.8463 38.7493C89.8281 38.7557 89.8287 38.788 89.8046 38.7907C89.6436 38.8083 89.5361 38.7825 89.3607 38.7949C89.1852 38.8072 88.9743 38.8256 88.774 38.8147C88.6533 38.8081 88.4984 38.7478 88.4406 38.733C88.2774 38.6905 88.1024 38.7602 88.0013 38.7088C87.8994 38.657 88.0987 38.5784 87.8314 38.545C87.8215 38.6291 87.7987 38.7153 87.7828 38.7999C87.197 38.7969 86.6206 38.7697 86.0328 38.7735C85.9599 38.774 86.0345 38.8192 85.9563 38.8209C85.6268 38.8281 85.3389 38.7959 84.9971 38.8087C84.7325 38.8188 84.4424 38.8667 84.1657 38.8787C83.9967 38.7825 83.5862 38.8152 83.288 38.8064C83.1835 38.8034 83.1905 38.7777 83.1162 38.7693C82.836 38.7383 82.9673 38.8233 82.8905 38.8367C82.5608 38.8938 82.5326 38.7014 82.1439 38.7061C82.1233 38.7063 81.8716 38.8089 81.837 38.8153C81.6167 38.8569 81.8005 38.7796 81.6627 38.772C81.411 38.7581 81.2361 38.7336 80.9408 38.7637C80.8547 38.7726 80.6481 38.8365 80.4809 38.7871C80.4589 38.7806 80.471 38.7467 80.4533 38.7447C80.1329 38.7116 80.1244 38.8181 79.9413 38.8542C79.7581 38.8903 79.4752 38.8167 79.4176 38.7955C79.267 38.7407 79.533 38.7721 79.5412 38.7667C79.637 38.7027 79.4307 38.7137 79.273 38.7083C79.2502 38.6039 79.0297 38.6102 79.1096 38.7031C79.1187 38.7133 79.2414 38.7036 79.273 38.7083C79.1346 38.8108 78.8923 38.8239 78.6247 38.7282C78.4994 38.6833 78.6178 38.631 78.2373 38.6501C78.0646 38.6587 78.1313 38.7307 77.9789 38.7503C77.6307 38.795 77.1782 38.7279 76.8192 38.7385C76.6889 38.7423 76.8158 38.7817 76.7268 38.7857C76.4905 38.7963 76.2821 38.7668 76.0448 38.7819C76.0233 38.7834 76.0758 38.8246 76.002 38.8251C75.4425 38.8299 74.9554 38.8035 74.3712 38.8028C74.089 38.8024 73.5844 38.8251 73.292 38.8206C72.7853 38.8129 72.1619 38.753 71.729 38.7675C71.4466 38.7769 71.5086 38.8181 71.3876 38.8461C71.1542 38.9006 70.7409 38.8031 70.6853 38.788C70.6836 38.7875 70.9266 38.7778 70.7969 38.7566C70.7215 38.7125 70.688 38.7878 70.6853 38.788C70.6488 38.7782 70.1634 38.7689 70.067 38.7767C70.0147 38.7811 70.044 38.8201 70.0167 38.8216C69.3677 38.8566 68.7176 38.8665 68.0594 38.8482C68.0478 38.8474 68.0652 38.8038 68.038 38.8024C67.6569 38.783 67.4129 38.8365 67.0986 38.8682C66.7844 38.8999 66.5352 38.8893 66.3492 38.8143C66.1121 38.8237 65.772 38.7906 65.5762 38.7705C65.3805 38.7503 65.3532 38.8354 65.336 38.8371C64.7988 38.8909 64.4883 38.8422 63.9309 38.8346C63.666 38.8309 63.1404 38.8432 62.8535 38.8525C62.6268 38.86 62.4902 38.8401 62.2813 38.8528C62.253 38.8545 62.2816 38.8924 62.273 38.8938C62.0398 38.9391 62.1519 38.8466 62.1037 38.83C61.9292 38.7699 61.8214 38.7379 61.5228 38.7662C61.4539 38.7727 61.2533 38.9059 61.1278 38.9137C60.9646 38.9236 61.0262 38.8758 60.8553 38.8874C60.8407 38.8884 60.8437 38.9178 60.7382 38.9165C60.2486 38.9109 59.7148 38.8937 59.206 38.8967C59.1365 38.897 59.2256 38.9437 59.1252 38.9449C58.654 38.9504 58.1375 38.9487 57.6785 38.9268C57.5655 38.9213 57.6363 38.8886 57.6118 38.8789C57.4612 38.8201 57.2477 38.9055 57.2125 38.9071C56.372 38.9482 55.7287 38.8709 54.8721 38.9077C54.8255 38.9098 54.4665 39.0014 54.3064 38.9229C54.2954 38.9176 54.137 38.8373 53.9969 38.8922C53.9882 38.8957 54.0869 38.937 53.9146 38.9328C53.7424 38.9286 53.4651 38.9562 53.2283 38.9108C53.1533 38.8965 52.9761 38.8163 52.7524 38.8802C52.7379 38.8847 52.3926 39.0291 52.2694 38.9295C52.2494 38.9131 52.2703 38.8076 52.0034 38.8616C51.9524 38.8721 52.045 38.8957 51.9106 38.9104C51.7047 38.933 51.432 38.9047 51.1789 38.9517C51.1348 38.9601 50.9469 39.0317 50.7962 38.9773C50.7726 38.9688 50.8175 38.9336 50.7379 38.9296C50.3594 38.9107 49.9632 38.9343 49.5789 38.9099C49.4428 38.9014 49.5124 38.8444 49.3705 38.8292C49.2287 38.8139 48.9428 38.7993 48.7943 38.8253C48.6458 38.8513 48.8081 38.942 48.5856 38.9493C47.6185 38.9808 46.6604 38.9276 45.6948 38.9198C45.5515 38.9187 45.6703 38.9511 45.4592 38.9517C44.681 38.9542 43.3375 38.9846 42.6622 38.9156C42.1212 38.8603 42.802 38.8183 42.3886 38.7958C42.1891 38.7851 41.9733 38.8906 41.9251 38.8939C41.4546 38.9276 41.1277 38.8809 40.7042 38.8952C40.6167 38.8982 40.7025 38.9409 40.6281 38.943C40.3739 38.9504 40.1067 38.9313 39.8638 38.9348C39.7548 38.9365 39.7749 38.9692 39.6746 38.9666C39.4347 38.961 39.2225 38.9472 38.9886 38.9166C38.9673 38.9139 39.111 38.8732 38.9335 38.8717C38.6462 38.8694 38.2896 38.8392 37.959 38.8704C37.861 38.8798 37.8571 38.9544 37.6463 38.9028C37.6021 38.8921 37.6585 38.8025 37.4129 38.8799C37.3716 38.8928 36.9591 38.9972 36.7566 38.9299C36.7032 38.9122 36.5669 38.8388 36.4489 38.8504C36.4329 38.8522 36.497 38.8923 36.3993 38.8962C36.0548 38.9093 35.6938 38.905 35.34 38.9176C35.2455 38.921 35.3862 38.9625 35.2454 38.9663C34.8581 38.9767 34.3746 38.9662 33.9959 38.9532C33.8562 38.9483 33.9527 38.914 33.9426 38.9102C33.7792 38.8494 33.6826 38.9315 33.6284 38.9363C33.2911 38.965 33.0343 38.9264 32.7235 38.9366C32.6377 38.9393 32.6985 38.9785 32.6814 38.9819C32.5043 39.0161 32.6363 38.9458 32.5242 38.938C32.2101 38.9161 31.86 38.9192 31.5424 38.9242C31.4258 38.9261 31.5569 38.9715 31.4522 38.9727C30.8326 38.9805 30.1884 38.9762 29.5837 38.9511C29.4698 38.9463 29.5414 38.9114 29.5177 38.9034C29.3542 38.8475 29.1145 38.9237 29.0593 38.931C28.8085 38.9641 28.7111 38.9332 28.4896 38.939C27.4076 38.9677 26.0717 38.9472 25.0504 38.9346C23.7196 38.9183 22.6869 38.8851 21.4178 38.8937C21.3371 38.8942 21.4185 38.9407 21.3489 38.9417C20.4512 38.9529 19.5674 38.9348 18.6679 38.9482C18.5941 38.9492 18.7005 38.9933 18.582 38.9964C18.339 39.0031 18.0312 39.0007 17.7855 38.9866C17.6656 38.9799 17.8264 38.942 17.7057 38.936C17.4249 38.9218 17.1238 38.9187 16.8353 38.9257C16.7125 38.9288 16.8977 38.9739 16.7382 38.9744C15.6511 38.9789 14.5834 38.9867 13.4849 38.9283C13.4096 38.9243 13.3435 38.8327 13.1834 38.8502C13.1713 38.8757 13.172 38.9056 13.1667 38.9328C11.5842 38.9474 10.0179 38.9156 8.43093 38.9107C8.36402 38.9105 8.47965 38.9591 8.35011 38.9589C7.60037 38.9582 6.87232 38.9717 6.10542 38.9234C6.02933 38.9187 6.06837 38.8333 5.84414 38.8462C5.80459 38.8486 5.46686 38.86 5.37954 38.8785C5.36768 38.8813 5.4293 38.9212 5.32047 38.9223C4.68805 38.9284 4.0253 38.9193 3.39397 38.8949C3.29208 38.8909 3.40058 38.8485 3.32801 38.8452C2.81322 38.8227 2.25328 38.855 1.76137 38.8164C1.43211 38.7905 1.55401 38.7171 1.37904 38.6449C1.35429 38.6347 1.1504 38.633 1.13986 38.591C1.11279 38.4853 1.21155 38.3696 1.17103 38.257C1.16246 38.2327 0.889402 38.2588 1.05107 38.2002C1.06237 38.1963 1.26034 38.1768 1.3091 38.1569C1.34305 38.1432 1.28187 38.1004 1.35114 38.0828C1.4204 38.0653 1.49651 38.1011 1.61134 38.0804C1.72612 38.0595 1.67565 38.0108 1.90488 38.0051ZM64.6949 38.6806C64.5136 38.6397 64.4869 38.7893 64.6829 38.7535C64.6924 38.7516 64.7042 38.6826 64.6949 38.6806ZM86.6239 38.6569C86.3869 38.591 86.2248 38.688 86.3919 38.7389C86.5591 38.7898 86.6961 38.6769 86.6239 38.6569ZM89.0809 38.6088C88.804 38.5568 88.7604 38.7688 89.057 38.726C89.0743 38.7235 89.0971 38.6118 89.0809 38.6088ZM2.19045 38.6243C2.18795 38.6223 2.04138 38.6204 2.03788 38.6223C1.95984 38.6698 2.25291 38.6737 2.19045 38.6243ZM91.5191 38.5564C91.4327 38.5277 91.1838 38.5608 91.2912 38.5965C91.3776 38.6251 91.6268 38.592 91.5191 38.5564ZM55.2403 38.521C55.2374 38.5187 55.1324 38.5167 55.1345 38.5293C55.1416 38.5699 55.2878 38.5584 55.2403 38.521ZM95.6631 38.5539C95.0509 38.5459 94.6797 38.3708 95.3464 38.3905C95.4671 38.3941 95.0862 38.4464 95.2399 38.4622C95.5211 38.4909 95.7078 38.381 95.9947 38.4399C96.0467 38.4507 95.6981 38.5548 95.6621 38.5542C95.6624 38.5541 95.6628 38.554 95.6631 38.5539ZM64.5905 38.5009C64.5869 38.499 64.4414 38.4971 64.4379 38.499C64.3592 38.5465 64.6522 38.5503 64.5905 38.5009ZM49.1089 38.4285C49.1009 38.4243 48.7633 38.4203 48.7523 38.4242C48.5762 38.5018 49.2587 38.51 49.1089 38.4285ZM74.3868 38.3915C74.5455 38.3437 74.7354 38.3381 74.8619 38.3981C74.7042 38.3949 74.5454 38.3944 74.3868 38.3915Z" fill="white" fill-opacity="0.01"/>
<path d="M1.90488 57.0051C2.43723 56.9921 3.13506 57.006 3.6654 57.0251C3.83161 57.031 3.74745 57.0575 3.86219 57.0628C4.08659 57.0731 4.29564 57.0601 4.5174 57.0724C4.59089 57.0766 4.49941 57.1186 4.57647 57.122C4.99875 57.1406 5.39824 57.1299 5.82602 57.1388C7.93309 57.1828 10.0043 57.1986 12.1372 57.2177C12.8404 57.224 13.6953 57.2621 14.4217 57.2454C14.5065 57.2435 14.456 57.2066 14.4721 57.2036C14.7251 57.1571 14.641 57.2315 14.8062 57.2414C15.462 57.2804 16.1912 57.2838 16.8222 57.2695C17.0907 57.2634 16.8215 57.1902 17.0919 57.2313C17.1106 57.2341 17.0425 57.2732 17.1161 57.2774C17.2831 57.2867 17.5999 57.2798 17.7293 57.2829C17.9787 57.289 18.02 57.2886 18.2559 57.2891C18.5784 57.29 18.9619 57.3095 19.3079 57.3006C19.3818 57.2986 19.284 57.2585 19.4018 57.2517C19.5197 57.2449 19.8315 57.2483 19.9367 57.2577C20.0418 57.2672 19.9971 57.2987 20.0157 57.3059C20.1688 57.3669 20.5295 57.2824 20.5759 57.2804C21.4222 57.2448 22.148 57.2929 22.9424 57.2927C23.5455 57.2925 24.1903 57.2766 24.7642 57.2788C25.4478 57.2816 26.0272 57.3033 26.6914 57.2996C26.7615 57.2992 26.6793 57.2521 26.7649 57.2515C27.6745 57.2461 28.5777 57.2512 29.4833 57.283C29.5741 57.2863 29.4571 57.3277 29.5478 57.3334C30.1033 57.3674 30.9824 57.4492 31.3123 57.2689C31.6886 57.2759 32.1455 57.2832 32.4821 57.3195C32.6992 57.3429 32.4884 57.388 32.755 57.3688C32.8151 57.3645 32.7369 57.325 32.8271 57.3216C33.2068 57.3071 33.6217 57.3199 33.9973 57.2995C34.0737 57.2953 34.0528 57.2599 34.0745 57.2535C34.2564 57.2019 34.5593 57.2872 34.6253 57.2934C35.1281 57.3397 35.4953 57.3215 35.9637 57.3226C36.0724 57.3229 35.9439 57.2753 36.0485 57.2739C36.5909 57.2671 37.1528 57.2712 37.684 57.2923C37.8021 57.2971 37.6935 57.3376 37.7499 57.3419C37.9989 57.3607 38.0541 57.2842 38.2928 57.3007C38.3431 57.3041 38.3148 57.3388 38.324 57.3426C38.4677 57.4024 38.5925 57.3177 38.6295 57.3158C39.097 57.2903 39.3958 57.3787 39.8475 57.3662C39.9015 57.3646 39.7797 57.3207 39.9316 57.3189C40.9434 57.3068 42.0136 57.3189 43.0152 57.354C43.1709 57.3594 43.0598 57.3923 43.0696 57.3964C43.2293 57.4599 43.3326 57.3748 43.3834 57.3716C43.784 57.3485 44.1582 57.4199 44.4304 57.3186C46.1269 57.3537 47.8156 57.2968 49.4981 57.3876C49.5195 57.3886 49.4812 57.4305 49.5238 57.4325C50.0377 57.456 49.939 57.3909 50.2791 57.3112C50.3647 57.2912 50.6253 57.3874 50.6484 57.3944C50.7324 57.4204 50.6452 57.4827 50.6734 57.4877C50.9061 57.5272 50.8682 57.3211 51.1822 57.3211C51.192 57.3214 51.1508 57.3593 51.1771 57.3631C51.259 57.375 51.3402 57.3599 51.4203 57.3729C51.6036 57.4032 51.6689 57.5033 51.949 57.445C51.9844 57.4375 51.9303 57.3205 52.2107 57.3261C52.3224 57.3284 52.8171 57.3264 52.9557 57.3339C53.0942 57.3415 52.9991 57.3792 53.009 57.3808C53.3821 57.4306 53.2406 57.4513 53.4276 57.525C53.6145 57.5985 53.5627 57.4233 53.6389 57.4037C53.7152 57.3842 53.9888 57.4253 54.056 57.4396C54.1232 57.4539 54.0394 57.4778 54.0991 57.4859C54.4953 57.5388 54.273 57.3989 54.4035 57.3711C54.7113 57.3052 54.9509 57.4352 55.2327 57.448C55.3089 57.4514 55.2467 57.4218 55.3146 57.419C55.5834 57.4085 55.7451 57.449 56.051 57.4118C56.101 57.4058 56.3483 57.3276 56.5083 57.385C56.531 57.3932 56.4666 57.4256 56.5812 57.4329C56.7523 57.4438 57.0607 57.4508 57.2447 57.44C57.3805 57.432 57.2249 57.3786 57.3958 57.3952C57.4718 57.4026 57.331 57.4338 57.4737 57.4451C57.6158 57.4564 57.9788 57.4551 58.117 57.454C58.2549 57.4529 58.1794 57.4124 58.1906 57.4097C58.258 57.3941 58.5227 57.3745 58.5461 57.3746C59.7258 57.3696 60.8138 57.4379 61.9624 57.4153C62.0525 57.4136 61.9925 57.3709 62.0062 57.3702C62.3148 57.3523 62.0715 57.4658 62.2871 57.5038C62.256 57.4172 62.3832 57.4329 62.6006 57.4234C62.7053 57.4187 62.6483 57.3852 62.6578 57.3817C62.8132 57.3308 62.9213 57.3966 62.9492 57.4101C63.0521 57.4596 63.164 57.4011 63.234 57.4342C63.304 57.467 63.143 57.5157 63.3515 57.5151C63.4099 57.4841 63.2551 57.403 63.4134 57.3899C64.0106 57.3402 65.1254 57.4038 65.6056 57.4104C66.0848 57.417 66.2396 57.4113 66.5188 57.4225C67.0232 57.4428 66.8384 57.3826 67.1516 57.3551C67.4657 57.3276 67.313 57.4755 67.3581 57.5073C67.4025 57.5391 67.4508 57.5064 67.506 57.5239C67.561 57.5414 67.442 57.563 67.5712 57.5695C67.7005 57.5761 68.0541 57.5195 68.1 57.4863C68.1969 57.4158 68.0375 57.3419 68.3797 57.3679C68.3994 57.3694 68.3355 57.4083 68.4109 57.4122C69.0094 57.4422 69.6312 57.4441 70.229 57.4705C70.3112 57.4742 70.2377 57.5175 70.2856 57.5202C70.7838 57.5478 70.6057 57.4749 70.8788 57.3938C70.8175 57.5017 70.9685 57.5677 71.3467 57.5683C71.574 57.5687 71.5348 57.5216 71.6819 57.4884C71.726 57.4784 71.8869 57.5108 71.916 57.4886C72.0121 57.4162 71.8606 57.3351 72.2505 57.3674C72.2676 57.3689 72.2131 57.4086 72.2722 57.411C72.6543 57.4267 72.7 57.3509 73.113 57.3418C73.4367 57.3346 74.0124 57.3807 74.381 57.3883C74.3733 57.5095 74.7214 57.4818 74.8626 57.3982C75.1018 57.4016 75.3602 57.3968 75.5914 57.4084C75.671 57.4123 75.6187 57.4475 75.6287 57.4513C75.7826 57.5108 75.8866 57.4294 75.9382 57.4262C76.4979 57.3952 76.9538 57.4569 77.4878 57.3966C77.5068 57.3945 77.5375 57.3102 77.6803 57.3717C77.6895 57.376 77.5131 57.4143 77.7644 57.4173C78.0156 57.4202 78.4893 57.4654 78.8381 57.4263C78.9226 57.417 79.1361 57.3486 79.3074 57.402C79.3303 57.4093 79.3053 57.4334 79.3382 57.4469C79.4448 57.4897 79.5029 57.4045 79.6282 57.4769C79.7534 57.5492 80.0138 57.6034 80.3656 57.5535C80.3768 57.552 80.4601 57.4845 80.5708 57.4856C80.7474 57.4874 80.9981 57.5014 81.1825 57.501C81.2708 57.5008 81.2143 57.4589 81.2296 57.4581C81.8232 57.4346 82.2458 57.472 82.8818 57.4882C82.9983 57.4912 83.3334 57.4341 83.5591 57.4793C83.8069 57.5287 83.5522 57.7345 84.1219 57.6854C84.3516 57.6658 84.6425 57.4048 85.0554 57.5401C85.8562 57.5065 86.5968 57.5758 87.3998 57.5279C87.4359 57.5258 87.5501 57.4529 87.635 57.4539C87.761 57.4555 87.8302 57.4896 87.9202 57.4918C88.2972 57.5021 88.6423 57.473 89.0059 57.4775C89.1439 57.4791 89.0957 57.5143 89.2603 57.5163C89.4249 57.5182 89.5345 57.4719 89.7575 57.4943C89.9259 57.5113 90.0943 57.6061 90.3178 57.6171C90.3263 57.5237 90.4798 57.5256 90.7527 57.5009C90.8051 57.4961 90.7489 57.4636 90.7737 57.4597C90.8746 57.4429 90.9681 57.4699 91.064 57.4516C91.0873 57.4472 91.0884 57.4153 91.1074 57.4099C91.2696 57.3629 91.5367 57.4347 91.5826 57.4472C91.7584 57.4947 91.8405 57.4532 91.9754 57.4719C92.11 57.4906 91.9087 57.5139 92.066 57.5253C92.392 57.5487 92.8108 57.5436 93.1419 57.5451C93.274 57.5454 93.1839 57.5028 93.2028 57.5019C93.476 57.4911 93.7523 57.5364 93.9037 57.4516C94.0931 57.671 94.0684 57.4303 94.4589 57.4742C94.4897 57.4778 94.5288 57.5815 94.4107 57.5968C94.2926 57.612 94.1136 57.5795 93.9497 57.6033C93.9109 57.6089 93.6887 57.7061 93.6584 57.712C93.4208 57.758 93.3872 57.603 93.3746 57.5944C93.2321 57.5025 92.9605 57.6073 92.889 57.6145C92.5618 57.6477 92.2838 57.6259 92.0102 57.6496C91.8312 57.6649 91.8137 57.7664 91.6731 57.7633C91.206 57.753 91.0429 57.6113 90.6026 57.7342C90.5082 57.7604 90.602 57.8714 90.2638 57.7841C90.2425 57.7786 89.9914 57.6988 89.8463 57.7493C89.8281 57.7557 89.8287 57.788 89.8046 57.7907C89.6436 57.8083 89.5361 57.7825 89.3607 57.7949C89.1852 57.8072 88.9743 57.8256 88.774 57.8147C88.6533 57.8081 88.4984 57.7478 88.4406 57.733C88.2774 57.6905 88.1024 57.7602 88.0013 57.7088C87.8994 57.657 88.0987 57.5784 87.8314 57.545C87.8215 57.6291 87.7987 57.7153 87.7828 57.7999C87.197 57.7969 86.6206 57.7697 86.0328 57.7735C85.9599 57.774 86.0345 57.8192 85.9563 57.8209C85.6268 57.8281 85.3389 57.7959 84.9971 57.8087C84.7325 57.8188 84.4424 57.8667 84.1657 57.8787C83.9967 57.7825 83.5862 57.8152 83.288 57.8064C83.1835 57.8034 83.1905 57.7777 83.1162 57.7693C82.836 57.7383 82.9673 57.8233 82.8905 57.8367C82.5608 57.8938 82.5326 57.7014 82.1439 57.7061C82.1233 57.7063 81.8716 57.8089 81.837 57.8153C81.6167 57.8569 81.8005 57.7796 81.6627 57.772C81.411 57.7581 81.2361 57.7336 80.9408 57.7637C80.8547 57.7726 80.6481 57.8365 80.4809 57.7871C80.4589 57.7806 80.471 57.7467 80.4533 57.7447C80.1329 57.7116 80.1244 57.8181 79.9413 57.8542C79.7581 57.8903 79.4752 57.8167 79.4176 57.7955C79.267 57.7407 79.533 57.7721 79.5412 57.7667C79.637 57.7027 79.4307 57.7137 79.273 57.7083C79.2502 57.6039 79.0297 57.6102 79.1096 57.7031C79.1187 57.7133 79.2414 57.7036 79.273 57.7083C79.1346 57.8108 78.8923 57.8239 78.6247 57.7282C78.4994 57.6833 78.6178 57.631 78.2373 57.6501C78.0646 57.6587 78.1313 57.7307 77.9789 57.7503C77.6307 57.795 77.1782 57.7279 76.8192 57.7385C76.6889 57.7423 76.8158 57.7817 76.7268 57.7857C76.4905 57.7963 76.2821 57.7668 76.0448 57.7819C76.0233 57.7834 76.0758 57.8246 76.002 57.8251C75.4425 57.8299 74.9554 57.8035 74.3712 57.8028C74.089 57.8024 73.5844 57.8251 73.292 57.8206C72.7853 57.8129 72.1619 57.753 71.729 57.7675C71.4466 57.7769 71.5086 57.8181 71.3876 57.8461C71.1542 57.9006 70.7409 57.8031 70.6853 57.788C70.6836 57.7875 70.9266 57.7778 70.7969 57.7566C70.7215 57.7125 70.688 57.7878 70.6853 57.788C70.6488 57.7782 70.1634 57.7689 70.067 57.7767C70.0147 57.7811 70.044 57.8201 70.0167 57.8216C69.3677 57.8566 68.7176 57.8665 68.0594 57.8482C68.0478 57.8474 68.0652 57.8038 68.038 57.8024C67.6569 57.783 67.4129 57.8365 67.0986 57.8682C66.7844 57.8999 66.5352 57.8893 66.3492 57.8143C66.1121 57.8237 65.772 57.7906 65.5762 57.7705C65.3805 57.7503 65.3532 57.8354 65.336 57.8371C64.7988 57.8909 64.4883 57.8422 63.9309 57.8346C63.666 57.8309 63.1404 57.8432 62.8535 57.8525C62.6268 57.86 62.4902 57.8401 62.2813 57.8528C62.253 57.8545 62.2816 57.8924 62.273 57.8938C62.0398 57.9391 62.1519 57.8466 62.1037 57.83C61.9292 57.7699 61.8214 57.7379 61.5228 57.7662C61.4539 57.7727 61.2533 57.9059 61.1278 57.9137C60.9646 57.9236 61.0262 57.8758 60.8553 57.8874C60.8407 57.8884 60.8437 57.9178 60.7382 57.9165C60.2486 57.9109 59.7148 57.8937 59.206 57.8967C59.1365 57.897 59.2256 57.9437 59.1252 57.9449C58.654 57.9504 58.1375 57.9487 57.6785 57.9268C57.5655 57.9213 57.6363 57.8886 57.6118 57.8789C57.4612 57.8201 57.2477 57.9055 57.2125 57.9071C56.372 57.9482 55.7287 57.8709 54.8721 57.9077C54.8255 57.9098 54.4665 58.0014 54.3064 57.9229C54.2954 57.9176 54.137 57.8373 53.9969 57.8922C53.9882 57.8957 54.0869 57.937 53.9146 57.9328C53.7424 57.9286 53.4651 57.9562 53.2283 57.9108C53.1533 57.8965 52.9761 57.8163 52.7524 57.8802C52.7379 57.8847 52.3926 58.0291 52.2694 57.9295C52.2494 57.9131 52.2703 57.8076 52.0034 57.8616C51.9524 57.8721 52.045 57.8957 51.9106 57.9104C51.7047 57.933 51.432 57.9047 51.1789 57.9517C51.1348 57.9601 50.9469 58.0317 50.7962 57.9773C50.7726 57.9688 50.8175 57.9336 50.7379 57.9296C50.3594 57.9107 49.9632 57.9343 49.5789 57.9099C49.4428 57.9014 49.5124 57.8444 49.3705 57.8292C49.2287 57.8139 48.9428 57.7993 48.7943 57.8253C48.6458 57.8513 48.8081 57.942 48.5856 57.9493C47.6185 57.9808 46.6604 57.9276 45.6948 57.9198C45.5515 57.9187 45.6703 57.9511 45.4592 57.9517C44.681 57.9542 43.3375 57.9846 42.6622 57.9156C42.1212 57.8603 42.802 57.8183 42.3886 57.7958C42.1891 57.7851 41.9733 57.8906 41.9251 57.8939C41.4546 57.9276 41.1277 57.8809 40.7042 57.8952C40.6167 57.8982 40.7025 57.9409 40.6281 57.943C40.3739 57.9504 40.1067 57.9313 39.8638 57.9348C39.7548 57.9365 39.7749 57.9692 39.6746 57.9666C39.4347 57.961 39.2225 57.9472 38.9886 57.9166C38.9673 57.9139 39.111 57.8732 38.9335 57.8717C38.6462 57.8694 38.2896 57.8392 37.959 57.8704C37.861 57.8798 37.8571 57.9544 37.6463 57.9028C37.6021 57.8921 37.6585 57.8025 37.4129 57.8799C37.3716 57.8928 36.9591 57.9972 36.7566 57.9299C36.7032 57.9122 36.5669 57.8388 36.4489 57.8504C36.4329 57.8522 36.497 57.8923 36.3993 57.8962C36.0548 57.9093 35.6938 57.905 35.34 57.9176C35.2455 57.921 35.3862 57.9625 35.2454 57.9663C34.8581 57.9767 34.3746 57.9662 33.9959 57.9532C33.8562 57.9483 33.9527 57.914 33.9426 57.9102C33.7792 57.8494 33.6826 57.9315 33.6284 57.9363C33.2911 57.965 33.0343 57.9264 32.7235 57.9366C32.6377 57.9393 32.6985 57.9785 32.6814 57.9819C32.5043 58.0161 32.6363 57.9458 32.5242 57.938C32.2101 57.9161 31.86 57.9192 31.5424 57.9242C31.4258 57.9261 31.5569 57.9715 31.4522 57.9727C30.8326 57.9805 30.1884 57.9762 29.5837 57.9511C29.4698 57.9463 29.5414 57.9114 29.5177 57.9034C29.3542 57.8475 29.1145 57.9237 29.0593 57.931C28.8085 57.9641 28.7111 57.9332 28.4896 57.939C27.4076 57.9677 26.0717 57.9472 25.0504 57.9346C23.7196 57.9183 22.6869 57.8851 21.4178 57.8937C21.3371 57.8942 21.4185 57.9407 21.3489 57.9417C20.4512 57.9529 19.5674 57.9348 18.6679 57.9482C18.5941 57.9492 18.7005 57.9933 18.582 57.9964C18.339 58.0031 18.0312 58.0007 17.7855 57.9866C17.6656 57.9799 17.8264 57.942 17.7057 57.936C17.4249 57.9218 17.1238 57.9187 16.8353 57.9257C16.7125 57.9288 16.8977 57.9739 16.7382 57.9744C15.6511 57.9789 14.5834 57.9867 13.4849 57.9283C13.4096 57.9243 13.3435 57.8327 13.1834 57.8502C13.1713 57.8757 13.172 57.9056 13.1667 57.9328C11.5842 57.9474 10.0179 57.9156 8.43093 57.9107C8.36402 57.9105 8.47965 57.9591 8.35011 57.9589C7.60037 57.9582 6.87232 57.9717 6.10542 57.9234C6.02933 57.9187 6.06837 57.8333 5.84414 57.8462C5.80459 57.8486 5.46686 57.86 5.37954 57.8785C5.36768 57.8813 5.4293 57.9212 5.32047 57.9223C4.68805 57.9284 4.0253 57.9193 3.39397 57.8949C3.29208 57.8909 3.40058 57.8485 3.32801 57.8452C2.81322 57.8227 2.25328 57.855 1.76137 57.8164C1.43211 57.7905 1.55401 57.7171 1.37904 57.6449C1.35429 57.6347 1.1504 57.633 1.13986 57.591C1.11279 57.4853 1.21155 57.3696 1.17103 57.257C1.16246 57.2327 0.889402 57.2588 1.05107 57.2002C1.06237 57.1963 1.26034 57.1768 1.3091 57.1569C1.34305 57.1432 1.28187 57.1004 1.35114 57.0828C1.4204 57.0653 1.49651 57.1011 1.61134 57.0804C1.72612 57.0595 1.67565 57.0108 1.90488 57.0051ZM64.6949 57.6806C64.5136 57.6397 64.4869 57.7893 64.6829 57.7535C64.6924 57.7516 64.7042 57.6826 64.6949 57.6806ZM86.6239 57.6569C86.3869 57.591 86.2248 57.688 86.3919 57.7389C86.5591 57.7898 86.6961 57.6769 86.6239 57.6569ZM89.0809 57.6088C88.804 57.5568 88.7604 57.7688 89.057 57.726C89.0743 57.7235 89.0971 57.6118 89.0809 57.6088ZM2.19045 57.6243C2.18795 57.6223 2.04138 57.6204 2.03788 57.6223C1.95984 57.6698 2.25291 57.6737 2.19045 57.6243ZM91.5191 57.5564C91.4327 57.5277 91.1838 57.5608 91.2912 57.5965C91.3776 57.6251 91.6268 57.592 91.5191 57.5564ZM55.2403 57.521C55.2374 57.5187 55.1324 57.5167 55.1345 57.5293C55.1416 57.5699 55.2878 57.5584 55.2403 57.521ZM95.6631 57.5539C95.0509 57.5459 94.6797 57.3708 95.3464 57.3905C95.4671 57.3941 95.0862 57.4464 95.2399 57.4622C95.5211 57.4909 95.7078 57.381 95.9947 57.4399C96.0467 57.4507 95.6981 57.5548 95.6621 57.5542C95.6624 57.5541 95.6628 57.554 95.6631 57.5539ZM64.5905 57.5009C64.5869 57.499 64.4414 57.4971 64.4379 57.499C64.3592 57.5465 64.6522 57.5503 64.5905 57.5009ZM49.1089 57.4285C49.1009 57.4243 48.7633 57.4203 48.7523 57.4242C48.5762 57.5018 49.2587 57.51 49.1089 57.4285ZM74.3868 57.3915C74.5455 57.3437 74.7354 57.3381 74.8619 57.3981C74.7042 57.3949 74.5454 57.3944 74.3868 57.3915Z" fill="white" fill-opacity="0.01"/>
<path d="M1.90488 76.0051C2.43723 75.9921 3.13506 76.006 3.6654 76.0251C3.83161 76.031 3.74745 76.0575 3.86219 76.0628C4.08659 76.0731 4.29564 76.0601 4.5174 76.0724C4.59089 76.0766 4.49941 76.1186 4.57647 76.122C4.99875 76.1406 5.39824 76.1299 5.82602 76.1388C7.93309 76.1828 10.0043 76.1986 12.1372 76.2177C12.8404 76.224 13.6953 76.2621 14.4217 76.2454C14.5065 76.2435 14.456 76.2066 14.4721 76.2036C14.7251 76.1571 14.641 76.2315 14.8062 76.2414C15.462 76.2804 16.1912 76.2838 16.8222 76.2695C17.0907 76.2634 16.8215 76.1902 17.0919 76.2313C17.1106 76.2341 17.0425 76.2732 17.1161 76.2774C17.2831 76.2867 17.5999 76.2798 17.7293 76.2829C17.9787 76.289 18.02 76.2886 18.2559 76.2891C18.5784 76.29 18.9619 76.3095 19.3079 76.3006C19.3818 76.2986 19.284 76.2585 19.4018 76.2517C19.5197 76.2449 19.8315 76.2483 19.9367 76.2577C20.0418 76.2672 19.9971 76.2987 20.0157 76.3059C20.1688 76.3669 20.5295 76.2824 20.5759 76.2804C21.4222 76.2448 22.148 76.2929 22.9424 76.2927C23.5455 76.2925 24.1903 76.2766 24.7642 76.2788C25.4478 76.2816 26.0272 76.3033 26.6914 76.2996C26.7615 76.2992 26.6793 76.2521 26.7649 76.2515C27.6745 76.2461 28.5777 76.2512 29.4833 76.283C29.5741 76.2863 29.4571 76.3277 29.5478 76.3334C30.1033 76.3674 30.9824 76.4492 31.3123 76.2689C31.6886 76.2759 32.1455 76.2832 32.4821 76.3195C32.6992 76.3429 32.4884 76.388 32.755 76.3688C32.8151 76.3645 32.7369 76.325 32.8271 76.3216C33.2068 76.3071 33.6217 76.3199 33.9973 76.2995C34.0737 76.2953 34.0528 76.2599 34.0745 76.2535C34.2564 76.2019 34.5593 76.2872 34.6253 76.2934C35.1281 76.3397 35.4953 76.3215 35.9637 76.3226C36.0724 76.3229 35.9439 76.2753 36.0485 76.2739C36.5909 76.2671 37.1528 76.2712 37.684 76.2923C37.8021 76.2971 37.6935 76.3376 37.7499 76.3419C37.9989 76.3607 38.0541 76.2842 38.2928 76.3007C38.3431 76.3041 38.3148 76.3388 38.324 76.3426C38.4677 76.4024 38.5925 76.3177 38.6295 76.3158C39.097 76.2903 39.3958 76.3787 39.8475 76.3662C39.9015 76.3646 39.7797 76.3207 39.9316 76.3189C40.9434 76.3068 42.0136 76.3189 43.0152 76.354C43.1709 76.3594 43.0598 76.3923 43.0696 76.3964C43.2293 76.4599 43.3326 76.3748 43.3834 76.3716C43.784 76.3485 44.1582 76.4199 44.4304 76.3186C46.1269 76.3537 47.8156 76.2968 49.4981 76.3876C49.5195 76.3886 49.4812 76.4305 49.5238 76.4325C50.0377 76.456 49.939 76.3909 50.2791 76.3112C50.3647 76.2912 50.6253 76.3874 50.6484 76.3944C50.7324 76.4204 50.6452 76.4827 50.6734 76.4877C50.9061 76.5272 50.8682 76.3211 51.1822 76.3211C51.192 76.3214 51.1508 76.3593 51.1771 76.3631C51.259 76.375 51.3402 76.3599 51.4203 76.3729C51.6036 76.4032 51.6689 76.5033 51.949 76.445C51.9844 76.4375 51.9303 76.3205 52.2107 76.3261C52.3224 76.3284 52.8171 76.3264 52.9557 76.3339C53.0942 76.3415 52.9991 76.3792 53.009 76.3808C53.3821 76.4306 53.2406 76.4513 53.4276 76.525C53.6145 76.5985 53.5627 76.4233 53.6389 76.4037C53.7152 76.3842 53.9888 76.4253 54.056 76.4396C54.1232 76.4539 54.0394 76.4778 54.0991 76.4859C54.4953 76.5388 54.273 76.3989 54.4035 76.3711C54.7113 76.3052 54.9509 76.4352 55.2327 76.448C55.3089 76.4514 55.2467 76.4218 55.3146 76.419C55.5834 76.4085 55.7451 76.449 56.051 76.4118C56.101 76.4058 56.3483 76.3276 56.5083 76.385C56.531 76.3932 56.4666 76.4256 56.5812 76.4329C56.7523 76.4438 57.0607 76.4508 57.2447 76.44C57.3805 76.432 57.2249 76.3786 57.3958 76.3952C57.4718 76.4026 57.331 76.4338 57.4737 76.4451C57.6158 76.4564 57.9788 76.4551 58.117 76.454C58.2549 76.4529 58.1794 76.4124 58.1906 76.4097C58.258 76.3941 58.5227 76.3745 58.5461 76.3746C59.7258 76.3696 60.8138 76.4379 61.9624 76.4153C62.0525 76.4136 61.9925 76.3709 62.0062 76.3702C62.3148 76.3523 62.0715 76.4658 62.2871 76.5038C62.256 76.4172 62.3832 76.4329 62.6006 76.4234C62.7053 76.4187 62.6483 76.3852 62.6578 76.3817C62.8132 76.3308 62.9213 76.3966 62.9492 76.4101C63.0521 76.4596 63.164 76.4011 63.234 76.4342C63.304 76.467 63.143 76.5157 63.3515 76.5151C63.4099 76.4841 63.2551 76.403 63.4134 76.3899C64.0106 76.3402 65.1254 76.4038 65.6056 76.4104C66.0848 76.417 66.2396 76.4113 66.5188 76.4225C67.0232 76.4428 66.8384 76.3826 67.1516 76.3551C67.4657 76.3276 67.313 76.4755 67.3581 76.5073C67.4025 76.5391 67.4508 76.5064 67.506 76.5239C67.561 76.5414 67.442 76.563 67.5712 76.5695C67.7005 76.5761 68.0541 76.5195 68.1 76.4863C68.1969 76.4158 68.0375 76.3419 68.3797 76.3679C68.3994 76.3694 68.3355 76.4083 68.4109 76.4122C69.0094 76.4422 69.6312 76.4441 70.229 76.4705C70.3112 76.4742 70.2377 76.5175 70.2856 76.5202C70.7838 76.5478 70.6057 76.4749 70.8788 76.3938C70.8175 76.5017 70.9685 76.5677 71.3467 76.5683C71.574 76.5687 71.5348 76.5216 71.6819 76.4884C71.726 76.4784 71.8869 76.5108 71.916 76.4886C72.0121 76.4162 71.8606 76.3351 72.2505 76.3674C72.2676 76.3689 72.2131 76.4086 72.2722 76.411C72.6543 76.4267 72.7 76.3509 73.113 76.3418C73.4367 76.3346 74.0124 76.3807 74.381 76.3883C74.3733 76.5095 74.7214 76.4818 74.8626 76.3982C75.1018 76.4016 75.3602 76.3968 75.5914 76.4084C75.671 76.4123 75.6187 76.4475 75.6287 76.4513C75.7826 76.5108 75.8866 76.4294 75.9382 76.4262C76.4979 76.3952 76.9538 76.4569 77.4878 76.3966C77.5068 76.3945 77.5375 76.3102 77.6803 76.3717C77.6895 76.376 77.5131 76.4143 77.7644 76.4173C78.0156 76.4202 78.4893 76.4654 78.8381 76.4263C78.9226 76.417 79.1361 76.3486 79.3074 76.402C79.3303 76.4093 79.3053 76.4334 79.3382 76.4469C79.4448 76.4897 79.5029 76.4045 79.6282 76.4769C79.7534 76.5492 80.0138 76.6034 80.3656 76.5535C80.3768 76.552 80.4601 76.4845 80.5708 76.4856C80.7474 76.4874 80.9981 76.5014 81.1825 76.501C81.2708 76.5008 81.2143 76.4589 81.2296 76.4581C81.8232 76.4346 82.2458 76.472 82.8818 76.4882C82.9983 76.4912 83.3334 76.4341 83.5591 76.4793C83.8069 76.5287 83.5522 76.7345 84.1219 76.6854C84.3516 76.6658 84.6425 76.4048 85.0554 76.5401C85.8562 76.5065 86.5968 76.5758 87.3998 76.5279C87.4359 76.5258 87.5501 76.4529 87.635 76.4539C87.761 76.4555 87.8302 76.4896 87.9202 76.4918C88.2972 76.5021 88.6423 76.473 89.0059 76.4775C89.1439 76.4791 89.0957 76.5143 89.2603 76.5163C89.4249 76.5182 89.5345 76.4719 89.7575 76.4943C89.9259 76.5113 90.0943 76.6061 90.3178 76.6171C90.3263 76.5237 90.4798 76.5256 90.7527 76.5009C90.8051 76.4961 90.7489 76.4636 90.7737 76.4597C90.8746 76.4429 90.9681 76.4699 91.064 76.4516C91.0873 76.4472 91.0884 76.4153 91.1074 76.4099C91.2696 76.3629 91.5367 76.4347 91.5826 76.4472C91.7584 76.4947 91.8405 76.4532 91.9754 76.4719C92.11 76.4906 91.9087 76.5139 92.066 76.5253C92.392 76.5487 92.8108 76.5436 93.1419 76.5451C93.274 76.5454 93.1839 76.5028 93.2028 76.5019C93.476 76.4911 93.7523 76.5364 93.9037 76.4516C94.0931 76.671 94.0684 76.4303 94.4589 76.4742C94.4897 76.4778 94.5288 76.5815 94.4107 76.5968C94.2926 76.612 94.1136 76.5795 93.9497 76.6033C93.9109 76.6089 93.6887 76.7061 93.6584 76.712C93.4208 76.758 93.3872 76.603 93.3746 76.5944C93.2321 76.5025 92.9605 76.6073 92.889 76.6145C92.5618 76.6477 92.2838 76.6259 92.0102 76.6496C91.8312 76.6649 91.8137 76.7664 91.6731 76.7633C91.206 76.753 91.0429 76.6113 90.6026 76.7342C90.5082 76.7604 90.602 76.8714 90.2638 76.7841C90.2425 76.7786 89.9914 76.6988 89.8463 76.7493C89.8281 76.7557 89.8287 76.788 89.8046 76.7907C89.6436 76.8083 89.5361 76.7825 89.3607 76.7949C89.1852 76.8072 88.9743 76.8256 88.774 76.8147C88.6533 76.8081 88.4984 76.7478 88.4406 76.733C88.2774 76.6905 88.1024 76.7602 88.0013 76.7088C87.8994 76.657 88.0987 76.5784 87.8314 76.545C87.8215 76.6291 87.7987 76.7153 87.7828 76.7999C87.197 76.7969 86.6206 76.7697 86.0328 76.7735C85.9599 76.774 86.0345 76.8192 85.9563 76.8209C85.6268 76.8281 85.3389 76.7959 84.9971 76.8087C84.7325 76.8188 84.4424 76.8667 84.1657 76.8787C83.9967 76.7825 83.5862 76.8152 83.288 76.8064C83.1835 76.8034 83.1905 76.7777 83.1162 76.7693C82.836 76.7383 82.9673 76.8233 82.8905 76.8367C82.5608 76.8938 82.5326 76.7014 82.1439 76.7061C82.1233 76.7063 81.8716 76.8089 81.837 76.8153C81.6167 76.8569 81.8005 76.7796 81.6627 76.772C81.411 76.7581 81.2361 76.7336 80.9408 76.7637C80.8547 76.7726 80.6481 76.8365 80.4809 76.7871C80.4589 76.7806 80.471 76.7467 80.4533 76.7447C80.1329 76.7116 80.1244 76.8181 79.9413 76.8542C79.7581 76.8903 79.4752 76.8167 79.4176 76.7955C79.267 76.7407 79.533 76.7721 79.5412 76.7667C79.637 76.7027 79.4307 76.7137 79.273 76.7083C79.2502 76.6039 79.0297 76.6102 79.1096 76.7031C79.1187 76.7133 79.2414 76.7036 79.273 76.7083C79.1346 76.8108 78.8923 76.8239 78.6247 76.7282C78.4994 76.6833 78.6178 76.631 78.2373 76.6501C78.0646 76.6587 78.1313 76.7307 77.9789 76.7503C77.6307 76.795 77.1782 76.7279 76.8192 76.7385C76.6889 76.7423 76.8158 76.7817 76.7268 76.7857C76.4905 76.7963 76.2821 76.7668 76.0448 76.7819C76.0233 76.7834 76.0758 76.8246 76.002 76.8251C75.4425 76.8299 74.9554 76.8035 74.3712 76.8028C74.089 76.8024 73.5844 76.8251 73.292 76.8206C72.7853 76.8129 72.1619 76.753 71.729 76.7675C71.4466 76.7769 71.5086 76.8181 71.3876 76.8461C71.1542 76.9006 70.7409 76.8031 70.6853 76.788C70.6836 76.7875 70.9266 76.7778 70.7969 76.7566C70.7215 76.7125 70.688 76.7878 70.6853 76.788C70.6488 76.7782 70.1634 76.7689 70.067 76.7767C70.0147 76.7811 70.044 76.8201 70.0167 76.8216C69.3677 76.8566 68.7176 76.8665 68.0594 76.8482C68.0478 76.8474 68.0652 76.8038 68.038 76.8024C67.6569 76.783 67.4129 76.8365 67.0986 76.8682C66.7844 76.8999 66.5352 76.8893 66.3492 76.8143C66.1121 76.8237 65.772 76.7906 65.5762 76.7705C65.3805 76.7503 65.3532 76.8354 65.336 76.8371C64.7988 76.8909 64.4883 76.8422 63.9309 76.8346C63.666 76.8309 63.1404 76.8432 62.8535 76.8525C62.6268 76.86 62.4902 76.8401 62.2813 76.8528C62.253 76.8545 62.2816 76.8924 62.273 76.8938C62.0398 76.9391 62.1519 76.8466 62.1037 76.83C61.9292 76.7699 61.8214 76.7379 61.5228 76.7662C61.4539 76.7727 61.2533 76.9059 61.1278 76.9137C60.9646 76.9236 61.0262 76.8758 60.8553 76.8874C60.8407 76.8884 60.8437 76.9178 60.7382 76.9165C60.2486 76.9109 59.7148 76.8937 59.206 76.8967C59.1365 76.897 59.2256 76.9437 59.1252 76.9449C58.654 76.9504 58.1375 76.9487 57.6785 76.9268C57.5655 76.9213 57.6363 76.8886 57.6118 76.8789C57.4612 76.8201 57.2477 76.9055 57.2125 76.9071C56.372 76.9482 55.7287 76.8709 54.8721 76.9077C54.8255 76.9098 54.4665 77.0014 54.3064 76.9229C54.2954 76.9176 54.137 76.8373 53.9969 76.8922C53.9882 76.8957 54.0869 76.937 53.9146 76.9328C53.7424 76.9286 53.4651 76.9562 53.2283 76.9108C53.1533 76.8965 52.9761 76.8163 52.7524 76.8802C52.7379 76.8847 52.3926 77.0291 52.2694 76.9295C52.2494 76.9131 52.2703 76.8076 52.0034 76.8616C51.9524 76.8721 52.045 76.8957 51.9106 76.9104C51.7047 76.933 51.432 76.9047 51.1789 76.9517C51.1348 76.9601 50.9469 77.0317 50.7962 76.9773C50.7726 76.9688 50.8175 76.9336 50.7379 76.9296C50.3594 76.9107 49.9632 76.9343 49.5789 76.9099C49.4428 76.9014 49.5124 76.8444 49.3705 76.8292C49.2287 76.8139 48.9428 76.7993 48.7943 76.8253C48.6458 76.8513 48.8081 76.942 48.5856 76.9493C47.6185 76.9808 46.6604 76.9276 45.6948 76.9198C45.5515 76.9187 45.6703 76.9511 45.4592 76.9517C44.681 76.9542 43.3375 76.9846 42.6622 76.9156C42.1212 76.8603 42.802 76.8183 42.3886 76.7958C42.1891 76.7851 41.9733 76.8906 41.9251 76.8939C41.4546 76.9276 41.1277 76.8809 40.7042 76.8952C40.6167 76.8982 40.7025 76.9409 40.6281 76.943C40.3739 76.9504 40.1067 76.9313 39.8638 76.9348C39.7548 76.9365 39.7749 76.9692 39.6746 76.9666C39.4347 76.961 39.2225 76.9472 38.9886 76.9166C38.9673 76.9139 39.111 76.8732 38.9335 76.8717C38.6462 76.8694 38.2896 76.8392 37.959 76.8704C37.861 76.8798 37.8571 76.9544 37.6463 76.9028C37.6021 76.8921 37.6585 76.8025 37.4129 76.8799C37.3716 76.8928 36.9591 76.9972 36.7566 76.9299C36.7032 76.9122 36.5669 76.8388 36.4489 76.8504C36.4329 76.8522 36.497 76.8923 36.3993 76.8962C36.0548 76.9093 35.6938 76.905 35.34 76.9176C35.2455 76.921 35.3862 76.9625 35.2454 76.9663C34.8581 76.9767 34.3746 76.9662 33.9959 76.9532C33.8562 76.9483 33.9527 76.914 33.9426 76.9102C33.7792 76.8494 33.6826 76.9315 33.6284 76.9363C33.2911 76.965 33.0343 76.9264 32.7235 76.9366C32.6377 76.9393 32.6985 76.9785 32.6814 76.9819C32.5043 77.0161 32.6363 76.9458 32.5242 76.938C32.2101 76.9161 31.86 76.9192 31.5424 76.9242C31.4258 76.9261 31.5569 76.9715 31.4522 76.9727C30.8326 76.9805 30.1884 76.9762 29.5837 76.9511C29.4698 76.9463 29.5414 76.9114 29.5177 76.9034C29.3542 76.8475 29.1145 76.9237 29.0593 76.931C28.8085 76.9641 28.7111 76.9332 28.4896 76.939C27.4076 76.9677 26.0717 76.9472 25.0504 76.9346C23.7196 76.9183 22.6869 76.8851 21.4178 76.8937C21.3371 76.8942 21.4185 76.9407 21.3489 76.9417C20.4512 76.9529 19.5674 76.9348 18.6679 76.9482C18.5941 76.9492 18.7005 76.9933 18.582 76.9964C18.339 77.0031 18.0312 77.0007 17.7855 76.9866C17.6656 76.9799 17.8264 76.942 17.7057 76.936C17.4249 76.9218 17.1238 76.9187 16.8353 76.9257C16.7125 76.9288 16.8977 76.9739 16.7382 76.9744C15.6511 76.9789 14.5834 76.9867 13.4849 76.9283C13.4096 76.9243 13.3435 76.8327 13.1834 76.8502C13.1713 76.8757 13.172 76.9056 13.1667 76.9328C11.5842 76.9474 10.0179 76.9156 8.43093 76.9107C8.36402 76.9105 8.47965 76.9591 8.35011 76.9589C7.60037 76.9582 6.87232 76.9717 6.10542 76.9234C6.02933 76.9187 6.06837 76.8333 5.84414 76.8462C5.80459 76.8486 5.46686 76.86 5.37954 76.8785C5.36768 76.8813 5.4293 76.9212 5.32047 76.9223C4.68805 76.9284 4.0253 76.9193 3.39397 76.8949C3.29208 76.8909 3.40058 76.8485 3.32801 76.8452C2.81322 76.8227 2.25328 76.855 1.76137 76.8164C1.43211 76.7905 1.55401 76.7171 1.37904 76.6449C1.35429 76.6347 1.1504 76.633 1.13986 76.591C1.11279 76.4853 1.21155 76.3696 1.17103 76.257C1.16246 76.2327 0.889402 76.2588 1.05107 76.2002C1.06237 76.1963 1.26034 76.1768 1.3091 76.1569C1.34305 76.1432 1.28187 76.1004 1.35114 76.0828C1.4204 76.0653 1.49651 76.1011 1.61134 76.0804C1.72612 76.0595 1.67565 76.0108 1.90488 76.0051ZM64.6949 76.6806C64.5136 76.6397 64.4869 76.7893 64.6829 76.7535C64.6924 76.7516 64.7042 76.6826 64.6949 76.6806ZM86.6239 76.6569C86.3869 76.591 86.2248 76.688 86.3919 76.7389C86.5591 76.7898 86.6961 76.6769 86.6239 76.6569ZM89.0809 76.6088C88.804 76.5568 88.7604 76.7688 89.057 76.726C89.0743 76.7235 89.0971 76.6118 89.0809 76.6088ZM2.19045 76.6243C2.18795 76.6223 2.04138 76.6204 2.03788 76.6223C1.95984 76.6698 2.25291 76.6737 2.19045 76.6243ZM91.5191 76.5564C91.4327 76.5277 91.1838 76.5608 91.2912 76.5965C91.3776 76.6251 91.6268 76.592 91.5191 76.5564ZM55.2403 76.521C55.2374 76.5187 55.1324 76.5167 55.1345 76.5293C55.1416 76.5699 55.2878 76.5584 55.2403 76.521ZM95.6631 76.5539C95.0509 76.5459 94.6797 76.3708 95.3464 76.3905C95.4671 76.3941 95.0862 76.4464 95.2399 76.4622C95.5211 76.4909 95.7078 76.381 95.9947 76.4399C96.0467 76.4507 95.6981 76.5548 95.6621 76.5542C95.6624 76.5541 95.6628 76.554 95.6631 76.5539ZM64.5905 76.5009C64.5869 76.499 64.4414 76.4971 64.4379 76.499C64.3592 76.5465 64.6522 76.5503 64.5905 76.5009ZM49.1089 76.4285C49.1009 76.4243 48.7633 76.4203 48.7523 76.4242C48.5762 76.5018 49.2587 76.51 49.1089 76.4285ZM74.3868 76.3915C74.5455 76.3437 74.7354 76.3381 74.8619 76.3981C74.7042 76.3949 74.5454 76.3944 74.3868 76.3915Z" fill="white" fill-opacity="0.01"/>
<line x1="0.5" y1="96" x2="0.499996" y2="1" stroke="white" stroke-opacity="0.019"/>
<line x1="19.5" y1="96" x2="19.5" y2="1" stroke="white" stroke-opacity="0.01"/>
<line x1="38.5" y1="96" x2="38.5" y2="1" stroke="white" stroke-opacity="0.01"/>
<line x1="57.5" y1="96" x2="57.5" y2="1" stroke="white" stroke-opacity="0.01"/>
<line x1="76.5" y1="96" x2="76.5" y2="1" stroke="white" stroke-opacity="0.01"/>
</svg>
